<?xml version="1.0" encoding="utf-8"?>
<!-- Generator: Adobe Illustrator 18.1.1, SVG Export Plug-In . SVG Version: 6.00 Build 0)  -->
<!DOCTYPE svg PUBLIC "-//W3C//DTD SVG 1.1//EN" "http://www.w3.org/Graphics/SVG/1.1/DTD/svg11.dtd">
<svg version="1.1" id="Layer_1" xmlns="http://www.w3.org/2000/svg" xmlns:xlink="http://www.w3.org/1999/xlink" x="0px" y="0px"
	 viewBox="-297 389 16 16" enable-background="new -297 389 16 16" xml:space="preserve">
<path fill="#CCCCCC" d="M-297,390v14h16v-14H-297z M-291,399v-3h4v3H-291z M-287,400v3h-4v-3H-287z M-287,392v3h-4v-3H-287z
	 M-292,392v3h-4v-3H-292z M-296,396h4v3h-4V396z M-286,396h4v3h-4V396z M-286,395v-3h4v3H-286z M-296,400h4v3h-4V400z M-286,403v-3
	h4v3H-286z"/>
</svg>
