<?xml version="1.0" encoding="utf-8"?>
<!-- Generator: Adobe Illustrator 18.1.1, SVG Export Plug-In . SVG Version: 6.00 Build 0)  -->
<!DOCTYPE svg PUBLIC "-//W3C//DTD SVG 1.1//EN" "http://www.w3.org/Graphics/SVG/1.1/DTD/svg11.dtd">
<svg version="1.1" id="Layer_1" xmlns="http://www.w3.org/2000/svg" xmlns:xlink="http://www.w3.org/1999/xlink" x="0px" y="0px"
	 viewBox="-297 389 16 16" enable-background="new -297 389 16 16" xml:space="preserve">
<path fill="#CCCCCC" d="M-282.5,391h-13c-0.8,0-1.5,0.7-1.5,1.5v10c0,0.8,0.7,1.5,1.5,1.5h13c0.8,0,1.5-0.7,1.5-1.5v-10
	C-281,391.7-281.7,391-282.5,391z M-290.8,397.6l-4.2,3.3v-7.8L-290.8,397.6z M-294.2,393h10.5l-5.2,3.9
	C-289,396.9-294.2,393-294.2,393z M-290.6,397.8l1.6,1.7l1.6-1.7l3.3,4.2h-9.8C-293.9,402-290.6,397.8-290.6,397.8z M-287.2,397.6
	l4.2-4.5v7.8L-287.2,397.6z"/>
</svg>
