<?xml version="1.0" encoding="utf-8"?>
<!-- Generator: Adobe Illustrator 18.1.1, SVG Export Plug-In . SVG Version: 6.00 Build 0)  -->
<!DOCTYPE svg PUBLIC "-//W3C//DTD SVG 1.1//EN" "http://www.w3.org/Graphics/SVG/1.1/DTD/svg11.dtd">
<svg version="1.1" id="Layer_1" xmlns="http://www.w3.org/2000/svg" xmlns:xlink="http://www.w3.org/1999/xlink" x="0px" y="0px"
	 viewBox="-297 389 16 16" enable-background="new -297 389 16 16" xml:space="preserve">
<path fill="#CCCCCC" d="M-293,390h8v2h-8V390z"/>
<path fill="#CCCCCC" d="M-282,393h-14c-0.5,0-1,0.5-1,1v5c0,0.5,0.5,1,1,1h3v4h8v-4h3c0.5,0,1-0.5,1-1v-5
	C-281,393.5-281.5,393-282,393z M-295,396c-0.6,0-1-0.4-1-1s0.4-1,1-1s1,0.4,1,1S-294.4,396-295,396z M-286,403h-6v-5h6V403z"/>
</svg>
