<?xml version="1.0" encoding="utf-8"?>
<!-- Generator: Adobe Illustrator 18.1.1, SVG Export Plug-In . SVG Version: 6.00 Build 0)  -->
<!DOCTYPE svg PUBLIC "-//W3C//DTD SVG 1.1//EN" "http://www.w3.org/Graphics/SVG/1.1/DTD/svg11.dtd">
<svg version="1.1" id="Layer_1" xmlns="http://www.w3.org/2000/svg" xmlns:xlink="http://www.w3.org/1999/xlink" x="0px" y="0px"
	 viewBox="-289 381 32 32" enable-background="new -289 381 32 32" xml:space="preserve">
<path fill="#FFFFFF" d="M-258,408.2l-7.6-6.4c-0.8-0.7-1.6-1-2.3-1c1.8-2.1,2.9-4.8,2.9-7.8c0-6.6-5.4-12-12-12c-6.6,0-12,5.4-12,12
	c0,6.6,5.4,12,12,12c3,0,5.7-1.1,7.8-2.9c0,0.7,0.3,1.5,1,2.3l6.4,7.6c1.1,1.2,2.9,1.3,4,0.2S-256.8,409.3-258,408.2z M-277,401
	c-4.4,0-8-3.6-8-8s3.6-8,8-8s8,3.6,8,8S-272.6,401-277,401z"/>
</svg>
