<?xml version="1.0" encoding="utf-8"?>
<!-- Generator: Adobe Illustrator 16.0.0, SVG Export Plug-In . SVG Version: 6.00 Build 0)  -->
<!DOCTYPE svg PUBLIC "-//W3C//DTD SVG 1.1//EN" "http://www.w3.org/Graphics/SVG/1.1/DTD/svg11.dtd">
<svg version="1.1" id="Layer_1" xmlns="http://www.w3.org/2000/svg" xmlns:xlink="http://www.w3.org/1999/xlink" x="0px" y="0px"
	 width="118.368px" height="102.84px" viewBox="0 0 118.368 102.84" enable-background="new 0 0 118.368 102.84"
	 xml:space="preserve">
<g>
	<polygon fill="#890024" points="118.334,102 15.268,102 0.333,86.696 0.333,0 118.334,0 	"/>
	<polygon opacity="0.63" fill="#F4F4F4" points="0.384,86.684 15.322,86.684 15.322,102.019 	"/>
</g>
<g>
	<path fill="#F0F1F2" d="M26.491,63.214h-5.017v-1.98H33.62v1.98h-5.017v13.599h-2.112V63.214z"/>
	<path fill="#F0F1F2" d="M34.784,69.023c0-4.621,3.366-8.186,8.119-8.186s8.119,3.564,8.119,8.186c0,4.62-3.366,8.185-8.119,8.185
		S34.784,73.644,34.784,69.023z M48.778,69.023c0-3.411-2.311-6.205-5.875-6.205s-5.875,2.794-5.875,6.205
		c0,3.41,2.311,6.204,5.875,6.204S48.778,72.434,48.778,69.023z"/>
	<path fill="#F0F1F2" d="M53.594,61.233h5.435c6.579,0,8.185,4.907,8.185,7.79c0,3.982-2.97,7.789-8.537,7.789h-5.083V61.233z
		 M55.706,74.832h2.662c3.565,0,6.601-1.959,6.601-5.809c0-1.98-1.034-5.81-6.095-5.81h-3.168V74.832z"/>
	<path fill="#F0F1F2" d="M75.023,61.233h1.914l6.666,15.579h-2.464l-1.562-3.852h-7.416l-1.54,3.852h-2.464L75.023,61.233z
		 M78.806,71.113l-2.904-7.151h-0.043l-2.949,7.151H78.806z"/>
	<path fill="#F0F1F2" d="M87.562,70.167l-5.896-8.934h2.706l4.247,6.843l4.379-6.843h2.574l-5.897,8.934v6.646h-2.112V70.167z"/>
</g>
<g>
	<rect x="35.308" y="33.275" fill="#F9F9F9" width="5.893" height="1.963"/>
	<polygon fill="#F9F9F9" points="41.198,37.199 35.308,37.199 35.308,47.646 54.548,47.646 54.548,42.296 41.198,42.296 	"/>
	<rect x="35.308" y="20.873" fill="#F9F9F9" width="5.893" height="10.44"/>
	<polygon fill="#F9F9F9" points="72.638,20.684 67.208,20.684 62.686,31.313 77.162,31.313 	"/>
	<polygon fill="#F9F9F9" points="60.18,37.199 55.73,47.646 61.739,47.646 64.19,41.644 75.51,41.644 77.958,47.646 84.114,47.646 
		79.667,37.199 	"/>
	<polygon fill="#F9F9F9" points="78,33.275 61.851,33.275 61.016,35.238 78.833,35.238 	"/>
	<circle fill="#F9F9F9" cx="95.283" cy="34.25" r="3.676"/>
	<path fill="#F9F9F9" d="M86.887,35.238c-0.037-0.323-0.06-0.646-0.06-0.977c0-0.335,0.025-0.663,0.064-0.986h-5.461
		c-0.02,0.327-0.039,0.653-0.039,0.986c0,0.328,0.011,0.653,0.039,0.977H86.887z"/>
	<path fill="#F9F9F9" d="M95.263,25.829c2.72,0,5.13,1.295,6.67,3.292l3.608-4.173c-2.537-2.797-6.203-4.558-10.278-4.558
		c-6.65,0-12.202,4.677-13.556,10.923h5.662C88.569,28.11,91.645,25.829,95.263,25.829z"/>
	<path fill="#F9F9F9" d="M102.046,39.254c-1.535,2.08-4,3.438-6.783,3.438c-3.623,0-6.701-2.285-7.898-5.493h-5.657
		c1.35,6.249,6.9,10.933,13.556,10.933c4.276,0,8.099-1.938,10.647-4.983L102.046,39.254z"/>
	<path fill="#F9F9F9" d="M24.083,31.313c-3.647-0.989-4.608-1.61-4.608-3.255c0-1.33,1.19-2.365,3.443-2.365
		c2.259,0,4.593,0.994,6.965,2.639l3.06-4.437c-2.719-2.181-6.044-3.407-9.945-3.407c-5.47,0-9.372,3.225-9.372,8.107
		c0,1.069,0.135,1.951,0.38,2.718H24.083z"/>
	<path fill="#F9F9F9" d="M23.881,37.199c3.283,0.953,4.01,1.709,4.01,3.07c0,1.606-1.452,2.558-3.861,2.558
		c-3.06,0-5.586-1.263-7.996-3.25l-3.482,4.167c3.211,2.87,7.306,4.287,11.362,4.287c5.774,0,9.833-2.984,9.833-8.343
		c0-0.955-0.124-1.767-0.355-2.491H23.881z"/>
	<path fill="#F9F9F9" d="M15.079,33.275c0.676,0.813,1.577,1.439,2.671,1.963h14.573c-0.633-0.775-1.47-1.415-2.502-1.963H15.079z"
		/>
</g>
</svg>
